<svg width="25" height="24" viewBox="0 0 25 24" fill="none" xmlns="http://www.w3.org/2000/svg">
<path d="M12.2725 7.74663C11.4825 7.74663 10.26 6.8483 8.97248 6.87997C7.27249 6.90247 5.71417 7.86579 4.83834 9.39162C3.07418 12.4541 4.38334 16.9774 6.10416 19.4665C6.94832 20.6782 7.94415 22.0415 9.26414 21.999C10.5308 21.9449 11.0058 21.1765 12.5433 21.1765C14.0691 21.1765 14.5016 21.999 15.8433 21.9665C17.2074 21.9449 18.0732 20.7332 18.9066 19.5099C19.8699 18.1032 20.2699 16.7391 20.2916 16.6641C20.2591 16.6532 17.6399 15.6466 17.6083 12.6166C17.5866 10.0833 19.6749 8.87162 19.7724 8.81745C18.5816 7.0758 16.7533 6.8808 16.1141 6.83747C14.4474 6.70747 13.0516 7.74579 12.2725 7.74579V7.74663ZM15.0874 5.19164C15.7899 4.34832 16.2541 3.16916 16.1249 2C15.1191 2.04333 13.9066 2.67083 13.1816 3.51499C12.5316 4.26165 11.97 5.46331 12.1208 6.60997C13.2358 6.69663 14.3833 6.03664 15.0866 5.19248" fill="#101316"/>
</svg>
