<svg width="25" height="24" viewBox="0 0 25 24" fill="none" xmlns="http://www.w3.org/2000/svg">
<path fill-rule="evenodd" clip-rule="evenodd" d="M21.3125 12.2047C21.3125 11.5665 21.2552 10.9529 21.1489 10.3638H12.6724V13.8452H17.5161C17.3074 14.9702 16.6733 15.9234 15.7201 16.5616V18.8198H18.6288C20.3307 17.253 21.3125 14.9457 21.3125 12.2047Z" fill="#4285F4"/>
<path fill-rule="evenodd" clip-rule="evenodd" d="M12.6724 21C15.1024 21 17.1397 20.194 18.6288 18.8195L15.7201 16.5612C14.9142 17.1013 13.8833 17.4204 12.6724 17.4204C10.3282 17.4204 8.34412 15.8371 7.63638 13.7098H4.62952V16.0417C6.11045 18.9831 9.15413 21 12.6724 21Z" fill="#34A853"/>
<path fill-rule="evenodd" clip-rule="evenodd" d="M7.63639 13.71C7.45639 13.17 7.35412 12.5932 7.35412 12C7.35412 11.4068 7.45639 10.83 7.63639 10.29V7.95813H4.62953C4.01997 9.17315 3.67224 10.5477 3.67224 12C3.67224 13.4523 4.01997 14.8269 4.62953 16.0419L7.63639 13.71Z" fill="#FBBC05"/>
<path fill-rule="evenodd" clip-rule="evenodd" d="M12.6724 6.57948C13.9938 6.57948 15.1801 7.03358 16.1129 7.92541L18.6943 5.344C17.1356 3.89171 15.0983 2.99988 12.6724 2.99988C9.15413 2.99988 6.11045 5.01673 4.62952 7.95814L7.63638 10.29C8.34412 8.16268 10.3282 6.57948 12.6724 6.57948Z" fill="#EA4335"/>
</svg>
