<svg width="8" height="8" viewBox="0 0 8 8" fill="none" xmlns="http://www.w3.org/2000/svg">
<path fill-rule="evenodd" clip-rule="evenodd" d="M6.78421 7.57958C7.00388 7.79925 7.36004 7.79925 7.57971 7.57958C7.79938 7.35991 7.79938 7.00375 7.57971 6.78409L4.79549 3.99986L7.5797 1.21565C7.79937 0.995982 7.79937 0.639827 7.5797 0.420157C7.36003 0.200487 7.00388 0.200487 6.78421 0.420157L3.99999 3.20437L1.21575 0.420124C0.996077 0.200453 0.639922 0.200454 0.420252 0.420124C0.200582 0.639794 0.200582 0.995949 0.420252 1.21562L3.2045 3.99986L0.420246 6.78412C0.200576 7.00379 0.200576 7.35994 0.420246 7.57961C0.639916 7.79928 0.996071 7.79928 1.21574 7.57961L3.99999 4.79536L6.78421 7.57958Z" fill="#101316"/>
</svg>
