<svg width="36" height="24" viewBox="0 0 36 24" fill="none" xmlns="http://www.w3.org/2000/svg">
<rect width="36" height="24" rx="2.4" fill="white"/>
<path fill-rule="evenodd" clip-rule="evenodd" d="M16.9532 14.9687V11.9417H18.5155C19.1557 11.9417 19.6961 11.7272 20.1366 11.3041L20.2423 11.1968C21.0469 10.3209 20.9941 8.95639 20.1366 8.14601C19.7078 7.71699 19.1205 7.4846 18.5155 7.49652H16.0076V14.9687H16.9532ZM16.9534 11.024V8.41413H18.5394C18.8801 8.41413 19.2032 8.54522 19.444 8.78357C19.9551 9.28409 19.9668 10.1183 19.4734 10.6367C19.2325 10.8929 18.8918 11.0359 18.5394 11.024H16.9534Z" fill="#3C4043"/>
<path fill-rule="evenodd" clip-rule="evenodd" d="M24.6531 10.2554C24.2479 9.87998 23.6958 9.6893 22.9969 9.6893C22.0983 9.6893 21.4228 10.023 20.9765 10.6844L21.8105 11.2147C22.1159 10.7619 22.5329 10.5354 23.0615 10.5354C23.3963 10.5354 23.7193 10.6606 23.9718 10.887C24.2185 11.1015 24.3595 11.4114 24.3595 11.7391V11.9596C23.9953 11.757 23.5372 11.6497 22.9734 11.6497C22.3156 11.6497 21.787 11.8046 21.3935 12.1204C21 12.4362 20.8003 12.8533 20.8003 13.3837C20.7885 13.8663 20.9941 14.3251 21.3582 14.635C21.7282 14.9687 22.1981 15.1355 22.7502 15.1355C23.4021 15.1355 23.919 14.8435 24.3125 14.2596H24.3536V14.9687H25.2581V11.8165C25.2581 11.1551 25.0584 10.6308 24.6531 10.2554ZM22.0867 14.0272C21.8928 13.8842 21.7754 13.6518 21.7754 13.4015C21.7754 13.1215 21.9046 12.8891 22.1572 12.7044C22.4156 12.5197 22.7387 12.4243 23.1206 12.4243C23.6492 12.4184 24.0604 12.5375 24.3541 12.7759C24.3541 13.1811 24.1955 13.5326 23.8842 13.8306C23.6022 14.1166 23.2204 14.2775 22.821 14.2775C22.5566 14.2834 22.2982 14.194 22.0867 14.0272Z" fill="#3C4043"/>
<path d="M27.2903 17.2151L30.4501 9.85615H29.4223L27.9598 13.5267H27.9422L26.4445 9.85615H25.4167L27.49 14.6409L26.3153 17.2151H27.2903Z" fill="#3C4043"/>
<path d="M13.6887 11.2862C13.6887 10.9942 13.6652 10.7023 13.6182 10.4163H9.63025V12.0668H11.915C11.821 12.5971 11.5156 13.0738 11.0692 13.3717V14.4443H12.4318C13.2306 13.6995 13.6887 12.5971 13.6887 11.2862Z" fill="#4285F4"/>
<path d="M9.63042 15.4811C10.7698 15.4811 11.7329 15.0998 12.4318 14.4443L11.0692 13.3717C10.6874 13.6339 10.2001 13.7829 9.63042 13.7829C8.52625 13.7829 7.59239 13.0261 7.25762 12.0132H5.8539V13.1215C6.57044 14.5694 8.03289 15.4811 9.63042 15.4811Z" fill="#34A853"/>
<path d="M7.25762 12.0132C7.08139 11.4829 7.08155 10.9049 7.25778 10.3686V9.26625H5.85384C5.24879 10.4759 5.24879 11.9059 5.85384 13.1155L7.25762 12.0132Z" fill="#FBBC04"/>
<path d="M9.63042 8.59887C10.2354 8.58695 10.8168 8.81934 11.2514 9.2424L12.4613 8.01492C11.6919 7.28796 10.6817 6.88873 9.63042 6.90065C8.03289 6.90065 6.57038 7.8183 5.85384 9.26625L7.25762 10.3745C7.59239 9.35562 8.52625 8.59887 9.63042 8.59887Z" fill="#EA4335"/>
</svg>
