<svg width="36" height="24" viewBox="0 0 36 24" fill="none" xmlns="http://www.w3.org/2000/svg">
<rect width="36" height="24" rx="2.4" fill="white"/>
<path d="M24.374 7.86989C23.9306 7.69398 23.2273 7.49976 22.3578 7.49976C20.1378 7.49976 18.5746 8.68353 18.565 10.376C18.5466 11.6247 19.6842 12.3182 20.5351 12.7346C21.4048 13.16 21.7005 13.4377 21.7005 13.8169C21.6916 14.3993 20.9977 14.6678 20.3505 14.6678C19.453 14.6678 18.9721 14.5294 18.2413 14.2054L17.9453 14.0665L17.6308 16.018C18.158 16.2582 19.1294 16.4714 20.1378 16.4807C22.4965 16.4807 24.0321 15.3153 24.0503 13.5117C24.0593 12.522 23.4586 11.7637 22.1634 11.144C21.3772 10.7462 20.8957 10.478 20.8957 10.071C20.9049 9.70099 21.3029 9.32201 22.1905 9.32201C22.9213 9.30345 23.4582 9.47911 23.865 9.65489L24.0683 9.74721L24.374 7.86989Z" fill="#3362AB"/>
<path d="M16.225 16.3512H13.977L15.3831 7.65735H17.6309L16.225 16.3512Z" fill="#3362AB"/>
<path fill-rule="evenodd" clip-rule="evenodd" d="M30.1365 7.65735H28.3977C27.8615 7.65735 27.4541 7.81445 27.2228 8.37867L23.8838 16.351H26.2424C26.2424 16.351 26.6308 15.278 26.7142 15.0469H29.6004C29.6649 15.3521 29.8686 16.351 29.8686 16.351H31.95L30.1365 7.65735ZM27.3617 13.2712C27.5468 12.7718 28.2592 10.8388 28.2592 10.8388C28.2554 10.8462 28.2844 10.7659 28.3276 10.6462L28.3281 10.6447L28.3285 10.6437C28.393 10.4649 28.4888 10.1994 28.5549 10.0065L28.712 10.7556C28.712 10.7556 29.1377 12.8366 29.2302 13.2712H27.3617Z" fill="#3362AB"/>
<path d="M12.0995 7.65735L9.89799 13.5857L9.65743 12.3834L9.65721 12.3826L8.87119 8.38814C8.74175 7.83288 8.34396 7.67566 7.85374 7.65735H4.23701L4.20001 7.83301C5.08212 8.05858 5.87108 8.38363 6.56237 8.78778L8.56597 16.3419H10.9431L14.4765 7.65735H12.0995Z" fill="#3362AB"/>
</svg>
