<svg width="1440" height="974" viewBox="0 0 1440 974" fill="none" xmlns="http://www.w3.org/2000/svg">
<mask id="mask0_30_3074" style="mask-type:alpha" maskUnits="userSpaceOnUse" x="0" y="0" width="1440" height="974">
<rect width="1440" height="974" fill="white"/>
</mask>
<g mask="url(#mask0_30_3074)">
<path d="M1482.09 763.102C1482.09 833.675 1424.89 890.879 1354.31 890.879C1283.74 890.879 1226.54 833.675 1226.54 763.102C1226.54 692.634 1283.74 635.43 1354.31 635.43C1424.89 635.43 1482.09 692.634 1482.09 763.102Z" stroke="#A5A9AC" stroke-opacity="0.1" stroke-width="2.20223" stroke-miterlimit="10"/>
<g style="mix-blend-mode:overlay">
<path d="M831.606 1041.19L1091.93 780.974C1117.42 755.377 1159.08 755.377 1184.57 780.974C1210.17 806.467 1210.17 848.126 1184.57 873.619L1017.1 1041.19H1020.01L1186.12 875.07C1198.87 862.323 1205.92 845.328 1205.92 827.296C1205.92 809.265 1198.87 792.269 1186.12 779.419C1159.7 753.097 1116.8 753.097 1090.47 779.419L828.704 1041.19H831.606Z" fill="#A5A9AC" fill-opacity="0.1"/>
</g>
<path d="M1214.83 913.574C1211.82 916.579 1206.85 916.579 1203.84 913.574C1200.84 910.568 1200.84 905.698 1203.84 902.693C1206.85 899.687 1211.82 899.687 1214.83 902.693C1217.83 905.698 1217.83 910.568 1214.83 913.574Z" fill="#A5A9AC" fill-opacity="0.1"/>
<path d="M1359.71 768.595C1356.7 771.601 1351.83 771.601 1348.82 768.595C1345.82 765.59 1345.82 760.719 1348.82 757.714C1351.83 754.709 1356.7 754.709 1359.71 757.714C1362.71 760.719 1362.71 765.59 1359.71 768.595Z" fill="#A5A9AC" fill-opacity="0.1"/>
<path d="M1327.79 815.85C1320.53 823.105 1308.82 823.105 1301.57 815.85C1294.42 808.596 1294.42 796.886 1301.57 789.632C1308.82 782.378 1320.53 782.378 1327.79 789.632C1335.04 796.886 1335.04 808.596 1327.79 815.85Z" stroke="#A5A9AC" stroke-opacity="0.1" stroke-width="2.8629" stroke-miterlimit="10"/>
<path d="M1283.85 878.443C1271.41 890.879 1251.31 890.879 1238.97 878.443C1226.54 866.111 1226.54 846.007 1238.97 833.571C1251.31 821.239 1271.41 821.239 1283.85 833.571C1296.18 846.007 1296.18 866.111 1283.85 878.443Z" fill="#1C4E8E"/>
<path d="M190.09 225.543C193.199 222.434 198.069 222.434 201.075 225.543C204.08 228.548 204.08 233.419 201.075 236.424C198.069 239.43 193.199 239.43 190.09 236.424C187.085 233.419 187.085 228.548 190.09 225.543Z" fill="#1C4E8E"/>
<path d="M45.2154 370.418C48.2207 367.413 53.0913 367.413 56.0966 370.418C59.1018 373.423 59.1018 378.398 56.0966 381.403C53.0913 384.408 48.2207 384.408 45.2154 381.403C42.2101 378.398 42.2101 373.423 45.2154 370.418Z" fill="#A5A9AC" fill-opacity="0.1"/>
<path d="M77.1344 323.267C84.3886 316.013 96.0988 316.013 103.353 323.267C110.503 330.521 110.503 342.231 103.353 349.485C96.0988 356.636 84.3886 356.636 77.1344 349.485C69.8803 342.231 69.8803 330.521 77.1344 323.267Z" stroke="#1C4E8E" stroke-width="2.8629" stroke-miterlimit="10"/>
<path d="M121.074 260.571C133.509 248.239 153.614 248.239 165.946 260.571C178.381 273.006 178.381 293.007 165.946 305.442C153.614 317.878 133.509 317.878 121.074 305.442C108.742 293.007 108.742 273.006 121.074 260.571Z" fill="#A5A9AC" fill-opacity="0.1"/>
<g style="mix-blend-mode:overlay">
<path d="M-5.625 843.775L448.897 389.252L447.447 387.801L-5.625 840.873V843.775Z" fill="#A5A9AC" fill-opacity="0.1"/>
</g>
<g style="mix-blend-mode:overlay">
<path d="M-5.625 880.977L330.033 545.318L328.583 543.867L-5.625 878.075V880.977Z" fill="#A5A9AC" fill-opacity="0.1"/>
</g>
<g style="mix-blend-mode:overlay">
<path d="M1516.08 -13.248L1054.72 448.01L1056.17 449.461L1518.98 -13.248H1516.08Z" fill="#A5A9AC" fill-opacity="0.1"/>
</g>
<g style="mix-blend-mode:overlay">
<path d="M565.896 1041.19L894.093 712.889L892.642 711.438L562.891 1041.19H565.896Z" fill="#A5A9AC" fill-opacity="0.1"/>
</g>
<g style="mix-blend-mode:overlay">
<path d="M1559.4 71.9365L1268.3 363.034L1269.76 364.485L1559.4 74.8382V71.9365Z" fill="#A5A9AC" fill-opacity="0.1"/>
</g>
<path d="M527.251 847.75L578.237 901.223L599.067 830.34L527.251 847.75Z" fill="#1C4E8E"/>
<path d="M665.802 748.68L681.036 764.742L687.254 743.498L665.802 748.68Z" fill="#1C4E8E"/>
<path d="M614.095 786.712L638.862 812.724L649.018 778.215L614.095 786.712Z" fill="#1C4E8E"/>
<g style="mix-blend-mode:overlay">
<path d="M737.513 940.983H734.818V923.676H737.513V940.983Z" fill="#A5A9AC" fill-opacity="0.1"/>
<path d="M744.869 933.729V930.931H727.459V933.729H744.869Z" fill="#A5A9AC" fill-opacity="0.1"/>
<path d="M758.134 920.36H755.336V903.054H758.134V920.36Z" fill="#A5A9AC" fill-opacity="0.1"/>
<path d="M765.388 913.107V910.309H748.082V913.107H765.388Z" fill="#A5A9AC" fill-opacity="0.1"/>
<path d="M778.756 899.739H775.958V882.432H778.756V899.739Z" fill="#A5A9AC" fill-opacity="0.1"/>
<path d="M786.007 892.484V889.686H768.701V892.484H786.007Z" fill="#A5A9AC" fill-opacity="0.1"/>
<path d="M799.377 879.117H796.579V861.81H799.377V879.117Z" fill="#A5A9AC" fill-opacity="0.1"/>
<path d="M806.631 871.862V869.064H789.325V871.862H806.631Z" fill="#A5A9AC" fill-opacity="0.1"/>
<path d="M819.999 858.597H817.201V841.188H819.999V858.597Z" fill="#A5A9AC" fill-opacity="0.1"/>
<path d="M827.253 851.239V848.545H809.947V851.239H827.253Z" fill="#A5A9AC" fill-opacity="0.1"/>
<path d="M840.626 837.973H837.828V820.563H840.626V837.973Z" fill="#A5A9AC" fill-opacity="0.1"/>
<path d="M847.879 830.616V827.921H830.573V830.616H847.879Z" fill="#A5A9AC" fill-opacity="0.1"/>
<path d="M861.249 817.352H858.451V799.942H861.249V817.352Z" fill="#A5A9AC" fill-opacity="0.1"/>
<path d="M868.502 809.994V807.3H851.196V809.994H868.502Z" fill="#A5A9AC" fill-opacity="0.1"/>
<path d="M881.87 796.729H879.072V779.319H881.87V796.729Z" fill="#A5A9AC" fill-opacity="0.1"/>
<path d="M889.122 789.371V786.676H871.815V789.371H889.122Z" fill="#A5A9AC" fill-opacity="0.1"/>
<path d="M902.489 776.108H899.691V758.698H902.489V776.108Z" fill="#A5A9AC" fill-opacity="0.1"/>
<path d="M909.745 768.749V766.055H892.438V768.749H909.745Z" fill="#A5A9AC" fill-opacity="0.1"/>
<path d="M923.112 755.487H920.314V738.077H923.112V755.487Z" fill="#A5A9AC" fill-opacity="0.1"/>
<path d="M930.367 748.128V745.433H913.061V748.128H930.367Z" fill="#A5A9AC" fill-opacity="0.1"/>
<path d="M756.264 959.737H753.569V942.431H756.264V959.737Z" fill="#A5A9AC" fill-opacity="0.1"/>
<path d="M763.622 952.483V949.685H746.212V952.483H763.622Z" fill="#A5A9AC" fill-opacity="0.1"/>
<path d="M776.89 939.118H774.196V921.811H776.89V939.118Z" fill="#A5A9AC" fill-opacity="0.1"/>
<path d="M784.249 931.864V929.066H766.839V931.864H784.249Z" fill="#A5A9AC" fill-opacity="0.1"/>
<path d="M797.512 918.494H794.714V901.188H797.512V918.494Z" fill="#A5A9AC" fill-opacity="0.1"/>
<path d="M804.766 911.239V908.441H787.46V911.239H804.766Z" fill="#A5A9AC" fill-opacity="0.1"/>
<path d="M818.132 897.873H815.334V880.567H818.132V897.873Z" fill="#A5A9AC" fill-opacity="0.1"/>
<path d="M825.385 890.62V887.822H808.079V890.62H825.385Z" fill="#A5A9AC" fill-opacity="0.1"/>
<path d="M838.755 877.352H835.957V859.942H838.755V877.352Z" fill="#A5A9AC" fill-opacity="0.1"/>
<path d="M846.01 869.993V867.299H828.704V869.993H846.01Z" fill="#A5A9AC" fill-opacity="0.1"/>
<path d="M859.377 856.727H856.579V839.318H859.377V856.727Z" fill="#A5A9AC" fill-opacity="0.1"/>
<path d="M866.632 849.371V846.676H849.326V849.371H866.632Z" fill="#A5A9AC" fill-opacity="0.1"/>
<path d="M880.004 836.11H877.206V818.7H880.004V836.11Z" fill="#A5A9AC" fill-opacity="0.1"/>
<path d="M887.259 828.75V826.056H869.953V828.75H887.259Z" fill="#A5A9AC" fill-opacity="0.1"/>
<path d="M900.625 815.485H897.827V798.075H900.625V815.485Z" fill="#A5A9AC" fill-opacity="0.1"/>
<path d="M907.88 808.127V805.432H890.574V808.127H907.88Z" fill="#A5A9AC" fill-opacity="0.1"/>
<path d="M921.242 794.864H918.444V777.454H921.242V794.864Z" fill="#A5A9AC" fill-opacity="0.1"/>
<path d="M928.496 787.506V784.811H911.19V787.506H928.496Z" fill="#A5A9AC" fill-opacity="0.1"/>
<path d="M941.865 774.241H939.067V756.832H941.865V774.241Z" fill="#A5A9AC" fill-opacity="0.1"/>
<path d="M949.117 766.882V764.188H931.811V766.882H949.117Z" fill="#A5A9AC" fill-opacity="0.1"/>
<path d="M775.026 978.497H772.332V961.191H775.026V978.497Z" fill="#A5A9AC" fill-opacity="0.1"/>
<path d="M782.383 971.243V968.445H764.973V971.243H782.383Z" fill="#A5A9AC" fill-opacity="0.1"/>
<path d="M795.647 957.874H792.952V940.568H795.647V957.874Z" fill="#A5A9AC" fill-opacity="0.1"/>
<path d="M803.005 950.62V947.822H785.595V950.62H803.005Z" fill="#A5A9AC" fill-opacity="0.1"/>
<path d="M816.273 937.252H813.475V919.945H816.273V937.252Z" fill="#A5A9AC" fill-opacity="0.1"/>
<path d="M823.528 929.998V927.2H806.222V929.998H823.528Z" fill="#A5A9AC" fill-opacity="0.1"/>
<path d="M836.889 916.629H834.091V899.322H836.889V916.629Z" fill="#A5A9AC" fill-opacity="0.1"/>
<path d="M844.142 909.374V906.576H826.836V909.374H844.142Z" fill="#A5A9AC" fill-opacity="0.1"/>
<path d="M857.511 896.11H854.713V878.7H857.511V896.11Z" fill="#A5A9AC" fill-opacity="0.1"/>
<path d="M864.763 888.751V886.057H847.457V888.751H864.763Z" fill="#A5A9AC" fill-opacity="0.1"/>
<path d="M878.136 875.487H875.338V858.077H878.136V875.487Z" fill="#A5A9AC" fill-opacity="0.1"/>
<path d="M885.39 868.128V865.433H868.083V868.128H885.39Z" fill="#A5A9AC" fill-opacity="0.1"/>
<path d="M898.758 854.865H895.96V837.455H898.758V854.865Z" fill="#A5A9AC" fill-opacity="0.1"/>
<path d="M906.012 847.507V844.813H888.706V847.507H906.012Z" fill="#A5A9AC" fill-opacity="0.1"/>
<path d="M919.381 834.241H916.583V816.831H919.381V834.241Z" fill="#A5A9AC" fill-opacity="0.1"/>
<path d="M926.633 826.884V824.189H909.327V826.884H926.633Z" fill="#A5A9AC" fill-opacity="0.1"/>
<path d="M940.003 813.622H937.205V796.213H940.003V813.622Z" fill="#A5A9AC" fill-opacity="0.1"/>
<path d="M947.256 806.263V803.569H929.95V806.263H947.256Z" fill="#A5A9AC" fill-opacity="0.1"/>
<path d="M960.624 792.997H957.826V775.587H960.624V792.997Z" fill="#A5A9AC" fill-opacity="0.1"/>
<path d="M967.878 785.639V782.945H950.571V785.639H967.878Z" fill="#A5A9AC" fill-opacity="0.1"/>
</g>
<path d="M737.507 940.982H734.813V923.675H737.507V940.982Z" fill="#A5A9AC" fill-opacity="0.1"/>
<path d="M744.868 933.728V930.93H727.458V933.728H744.868Z" fill="#A5A9AC" fill-opacity="0.1"/>
<path d="M838.756 877.35H835.958V859.941H838.756V877.35Z" fill="#A5A9AC" fill-opacity="0.1"/>
<path d="M846.011 869.992V867.297H828.705V869.992H846.011Z" fill="#A5A9AC" fill-opacity="0.1"/>
<path d="M940.005 813.62H937.207V796.21H940.005V813.62Z" fill="#A5A9AC" fill-opacity="0.1"/>
<path d="M947.258 806.261V803.567H929.952V806.261H947.258Z" fill="#A5A9AC" fill-opacity="0.1"/>
<path d="M624.585 244.832C624.585 279.153 596.566 306.973 561.999 306.973C527.432 306.973 499.414 279.153 499.414 244.832C499.414 210.511 527.432 182.742 561.999 182.742C596.566 182.742 624.585 210.511 624.585 244.832Z" stroke="#A5A9AC" stroke-opacity="0.1" stroke-width="2.20223" stroke-miterlimit="10"/>
<path fill-rule="evenodd" clip-rule="evenodd" d="M214.361 1130C143.375 1130 85.5488 1072.17 85.5488 1001.19C85.5488 930.097 143.375 872.375 214.361 872.375C285.348 872.375 343.174 930.097 343.174 1001.19C343.174 1072.17 285.348 1130 214.361 1130ZM214.361 874.448C144.514 874.448 87.6214 931.237 87.6214 1001.19C87.6214 1071.03 144.514 1127.93 214.361 1127.93C284.208 1127.93 341.101 1071.03 341.101 1001.19C341.101 931.237 284.208 874.448 214.361 874.448Z" fill="#A5A9AC" fill-opacity="0.1"/>
<g style="mix-blend-mode:overlay">
<path d="M1141.25 1041.19L1559.4 623.041V620.761L1138.97 1041.19H1141.25Z" fill="#A5A9AC" fill-opacity="0.1"/>
<path d="M1147.88 1041.19L1559.4 629.674V627.497L1145.71 1041.19H1147.88Z" fill="#A5A9AC" fill-opacity="0.1"/>
<g opacity="0.9">
<path d="M1154.62 1041.19L1559.4 636.409V634.233L1152.44 1041.19H1154.62Z" fill="#A5A9AC" fill-opacity="0.1"/>
</g>
<g opacity="0.9">
<path d="M1161.35 1041.19L1559.4 643.146V640.969L1159.18 1041.19H1161.35Z" fill="#A5A9AC" fill-opacity="0.1"/>
</g>
<g opacity="0.9">
<path d="M1168.09 1041.19L1559.4 649.881V647.602L1165.81 1041.19H1168.09Z" fill="#A5A9AC" fill-opacity="0.1"/>
</g>
<g opacity="0.9">
<path d="M1174.72 1041.19L1559.4 656.514V654.338L1172.54 1041.19H1174.72Z" fill="#A5A9AC" fill-opacity="0.1"/>
</g>
<g opacity="0.8">
<path d="M1181.46 1041.19L1559.4 663.25V661.074L1179.28 1041.19H1181.46Z" fill="#A5A9AC" fill-opacity="0.1"/>
</g>
<g opacity="0.8">
<path d="M1188.19 1041.19L1559.4 669.986V667.81L1186.02 1041.19H1188.19Z" fill="#A5A9AC" fill-opacity="0.1"/>
</g>
<g opacity="0.8">
<path d="M1194.93 1041.19L1559.4 676.722V674.442L1192.65 1041.19H1194.93Z" fill="#A5A9AC" fill-opacity="0.1"/>
</g>
<g opacity="0.7">
<path d="M1201.57 1041.19L1559.4 683.354V681.178L1199.39 1041.19H1201.57Z" fill="#A5A9AC" fill-opacity="0.1"/>
</g>
<g opacity="0.7">
<path d="M1208.3 1041.19L1559.4 690.091V687.915L1206.12 1041.19H1208.3Z" fill="#A5A9AC" fill-opacity="0.1"/>
</g>
<g opacity="0.7">
<path d="M1215.04 1041.19L1559.4 696.826V694.65L1212.86 1041.19H1215.04Z" fill="#A5A9AC" fill-opacity="0.1"/>
</g>
<g opacity="0.7">
<path d="M1221.77 1041.19L1559.39 703.563V701.387L1219.49 1041.19H1221.77Z" fill="#A5A9AC" fill-opacity="0.1"/>
</g>
<g opacity="0.6">
<path d="M1228.4 1041.19L1559.4 710.298V708.018L1226.22 1041.19H1228.4Z" fill="#A5A9AC" fill-opacity="0.1"/>
</g>
<g opacity="0.6">
<path d="M1235.14 1041.19L1559.39 716.93V714.754L1232.96 1041.19H1235.14Z" fill="#A5A9AC" fill-opacity="0.1"/>
</g>
<g opacity="0.6">
<path d="M1241.87 1041.19L1559.4 723.665V721.489L1239.7 1041.19H1241.87Z" fill="#A5A9AC" fill-opacity="0.1"/>
</g>
<g opacity="0.6">
<path d="M1248.61 1041.19L1559.4 730.402V728.225L1246.33 1041.19H1248.61Z" fill="#A5A9AC" fill-opacity="0.1"/>
</g>
<g opacity="0.5">
<path d="M1255.24 1041.19L1559.4 737.138V734.858L1253.07 1041.19H1255.24Z" fill="#A5A9AC" fill-opacity="0.1"/>
</g>
<g opacity="0.5">
<path d="M1261.98 1041.19L1559.4 743.77V741.594L1259.8 1041.19H1261.98Z" fill="#A5A9AC" fill-opacity="0.1"/>
</g>
<g opacity="0.5">
<path d="M1268.71 1041.19L1559.4 750.505V748.329L1266.54 1041.19H1268.71Z" fill="#A5A9AC" fill-opacity="0.1"/>
</g>
<g opacity="0.4">
<path d="M1275.45 1041.19L1559.4 757.242V755.066L1273.28 1041.19H1275.45Z" fill="#A5A9AC" fill-opacity="0.1"/>
</g>
<g opacity="0.4">
<path d="M1282.19 1041.19L1559.4 763.98V761.7L1279.91 1041.19H1282.19Z" fill="#A5A9AC" fill-opacity="0.1"/>
</g>
<g opacity="0.4">
<path d="M1288.82 1041.19L1559.4 770.612V768.435L1286.64 1041.19H1288.82Z" fill="#A5A9AC" fill-opacity="0.1"/>
</g>
<g opacity="0.4">
<path d="M1295.56 1041.19L1559.4 777.346V775.17L1293.38 1041.19H1295.56Z" fill="#A5A9AC" fill-opacity="0.1"/>
</g>
<g opacity="0.3">
<path d="M1302.29 1041.19L1559.4 784.083V781.907L1300.11 1041.19H1302.29Z" fill="#A5A9AC" fill-opacity="0.1"/>
</g>
<g opacity="0.3">
<path d="M1309.03 1041.19L1559.4 790.819V788.539L1306.75 1041.19H1309.03Z" fill="#A5A9AC" fill-opacity="0.1"/>
</g>
<g opacity="0.3">
<path d="M1315.66 1041.19L1559.4 797.451V795.274L1313.48 1041.19H1315.66Z" fill="#A5A9AC" fill-opacity="0.1"/>
</g>
<g opacity="0.3">
<path d="M1322.39 1041.19L1559.4 804.187V802.011L1320.22 1041.19H1322.39Z" fill="#A5A9AC" fill-opacity="0.1"/>
</g>
<g opacity="0.2">
<path d="M1329.13 1041.19L1559.4 810.924V808.747L1326.95 1041.19H1329.13Z" fill="#A5A9AC" fill-opacity="0.1"/>
</g>
<g opacity="0.2">
<path d="M1335.87 1041.19L1559.4 817.659V815.379L1333.59 1041.19H1335.87Z" fill="#A5A9AC" fill-opacity="0.1"/>
</g>
<g opacity="0.2">
<path d="M1342.5 1041.19L1559.4 824.292V822.115L1340.32 1041.19H1342.5Z" fill="#A5A9AC" fill-opacity="0.1"/>
</g>
<g opacity="0.1">
<path d="M1349.23 1041.19L1559.4 831.027V828.851L1347.06 1041.19H1349.23Z" fill="#A5A9AC" fill-opacity="0.1"/>
</g>
<g opacity="0.1">
<path d="M1355.97 1041.19L1559.4 837.764V835.587L1353.8 1041.19H1355.97Z" fill="#A5A9AC" fill-opacity="0.1"/>
</g>
<g opacity="0.1">
<path d="M1362.7 1041.19L1559.39 844.499V842.219L1360.42 1041.19H1362.7Z" fill="#A5A9AC" fill-opacity="0.1"/>
</g>
<g opacity="0.1">
<path d="M1369.34 1041.19L1559.4 851.132V848.955L1367.16 1041.19H1369.34Z" fill="#A5A9AC" fill-opacity="0.1"/>
</g>
</g>
</g>
</svg>
